<?xml version="1.0" encoding="UTF-8"?>
<svg width="22px" height="26px" viewBox="0 0 22 26" version="1.1" xmlns="http://www.w3.org/2000/svg" xmlns:xlink="http://www.w3.org/1999/xlink">
    <!-- Generator: Sketch 57.1 (83088) - https://sketch.com -->
    <title>add</title>
    <desc>Created with Sketch.</desc>
    <g id="Page-1" stroke="none" stroke-width="1" fill="none" fill-rule="evenodd">
        <path d="M9.30384615,8.66666667 C9.77328819,8.66666667 10.1538462,9.04722463 10.1538462,9.51666667 L10.153,15.5996667 L16.0730769,15.6 C16.542519,15.6 16.9230769,15.980558 16.9230769,16.45 L16.9230769,18.2166667 C16.9230769,18.6861087 16.542519,19.0666667 16.0730769,19.0666667 L10.153,19.0656667 L10.1538462,25.15 C10.1538462,25.619442 9.77328819,26 9.30384615,26 L7.61923077,26 C7.14978873,26 6.76923077,25.619442 6.76923077,25.15 L6.769,19.0656667 L0.85,19.0666667 C0.380557963,19.0666667 -1.64554536e-16,18.6861087 0,18.2166667 L0,16.45 C-5.74900688e-17,15.980558 0.380557963,15.6 0.85,15.6 L6.769,15.5996667 L6.76923077,9.51666667 C6.76923077,9.04722463 7.14978873,8.66666667 7.61923077,8.66666667 L9.30384615,8.66666667 Z M17.3442308,7.73647064e-17 C17.5789518,3.62260724e-17 17.7692308,0.190278981 17.7692308,0.425 L17.7691538,4.333 L21.575,4.33333333 C21.809721,4.33333333 22,4.52361231 22,4.75833333 L22,5.64166667 C22,5.87638769 21.809721,6.06666667 21.575,6.06666667 L17.7691538,6.066 L17.7692308,9.975 C17.7692308,10.209721 17.5789518,10.4 17.3442308,10.4 L16.5019231,10.4 C16.2672021,10.4 16.0769231,10.209721 16.0769231,9.975 L16.0761538,6.066 L12.2711538,6.06666667 C12.0364328,6.06666667 11.8461538,5.87638769 11.8461538,5.64166667 L11.8461538,4.75833333 C11.8461538,4.52361231 12.0364328,4.33333333 12.2711538,4.33333333 L16.0761538,4.333 L16.0769231,0.425 C16.0769231,0.190278981 16.2672021,-3.13781829e-16 16.5019231,-7.73647064e-17 L17.3442308,7.73647064e-17 Z" id="add" fill="#0798E1"></path>
    </g>
</svg>