<?xml version="1.0" encoding="UTF-8"?>
<svg width="24px" height="22px" viewBox="0 0 24 22" version="1.1" xmlns="http://www.w3.org/2000/svg" xmlns:xlink="http://www.w3.org/1999/xlink">
    <!-- Generator: Sketch 57.1 (83088) - https://sketch.com -->
    <title>Slice 1</title>
    <desc>Created with Sketch.</desc>
    <g id="Page-1" stroke="none" stroke-width="1" fill="none" fill-rule="evenodd">
        <g id="burger">
            <path d="M11.5147079,21.4325581 L0.70469458,21.4325581 C-0.23779419,17.6328024 3.36554357,15.5418405 11.5147079,15.1596723 C23.7384543,14.58642 23.6403155,21.4325581 23.0251825,21.4325581 C22.6150939,21.4325581 18.778269,21.4325581 11.5147079,21.4325581 Z" id="Path" fill="#E8B73F" transform="translate(11.898501, 18.279070) rotate(-180.000000) translate(-11.898501, -18.279070) "></path>
            <path d="M11.9999202,14.9069627 L12.3115548,14.9062029 C16.0738049,14.8951156 18.3628065,14.9078066 19.1785596,14.944276 C20.4677106,14.9524175 21.8441628,14.9622745 23.3057306,14.973448 C24,16.2478161 24.1735674,17.0356151 23.8264326,17.336845 C23.4792979,17.638075 22.7379799,17.4273174 21.6024787,16.7045724 C21.1810423,16.3825959 20.8730444,16.2216077 20.6784852,16.2216077 C20.3866462,16.2216077 19.9247869,16.4452051 19.6050037,16.9926614 C19.3918149,17.3576322 18.8556719,17.4723601 17.9965748,17.336845 C17.570438,17.2373064 17.1994782,17.0265488 16.8836954,16.7045724 L16.8449837,16.669726 C16.742751,16.6056963 16.6436816,16.5402027 16.5506314,16.4774039 C16.3011509,16.3744856 16.0114981,16.3950604 15.6830734,16.5380036 C15.0581976,17.2015909 14.4722696,17.5064943 13.9252892,17.4527138 C13.3783088,17.3989333 12.8984266,17.1928492 12.4856426,16.8344616 C12.3741189,16.7315026 12.2568336,16.6541801 12.1337869,16.6024942 C11.9102369,16.6304732 11.7039698,16.7358059 11.5143574,16.9184675 C11.1015734,17.2924372 10.6216912,17.5074815 10.0747108,17.5636002 C9.52773042,17.619719 8.94180236,17.3015589 8.31692659,16.60912 C7.83229465,16.3890185 7.43208731,16.4469555 7.11630455,16.7829309 C6.80052179,17.1189063 6.42956202,17.3388273 6.00342522,17.4426937 C5.14432807,17.5841008 4.60818509,17.4643847 4.39499628,17.0835456 C4.07521305,16.5122869 3.61335376,16.2789678 3.32151484,16.2789678 C3.12695555,16.2789678 2.8189577,16.4469555 2.39752128,16.7829309 C1.26202005,17.5370997 0.520702078,17.7570206 0.173567359,17.4426937 C-0.173567359,17.1283668 -4.4408921e-16,16.3063157 0.694269438,14.9765402 C2.12403107,14.9651347 3.47234134,14.9550438 4.73920025,14.9462675 C5.49077684,14.9075001 7.91151206,14.894334 11.9999202,14.9069627 Z" id="Combined-Shape" fill="#78BB25"></path>
            <rect id="Rectangle" fill="#7D2900" x="0.223255814" y="12.3906977" width="23.5534884" height="3.2372093" rx="1.61860465"></rect>
            <path d="M3.60270064,11.4971379 L23.2744186,11.4976744 C23.5518454,11.4976744 23.7767442,11.7225732 23.7767442,12 C23.7767442,12.2774268 23.5518454,12.5023256 23.2744186,12.5023256 L8.09634025,12.5011832 C7.04472733,12.887369 6.14174921,13.5376243 5.3874059,14.4519491 C4.07288317,16.0452563 3.91340508,16.2339767 3.62695776,16.7864753 C3.43599287,17.1548078 3.09656461,16.9608728 2.60867296,16.2046703 C1.04661315,14.3300666 0.251537956,12.930509 0.223447371,12.0059974 C0.222521246,11.9754914 0.224672423,11.9461112 0.229900902,11.9178568 L0.223255814,12 C0.223255814,11.965911 0.226651441,11.932615 0.233122907,11.9004319 C0.235383654,11.8926285 0.237350954,11.8852791 0.239538422,11.8780102 C0.292668192,11.6595397 0.490221963,11.4976744 0.725581395,11.4976744 L0.765108155,11.4971876 C1.30601425,11.3490163 2.25187841,11.3489997 3.60270064,11.4971379 Z" id="Combined-Shape" fill="#FFDC46"></path>
            <rect id="Rectangle" fill="#E70101" x="0.223255814" y="9.54418605" width="23.5534884" height="1.95348837" rx="0.8"></rect>
            <path d="M11.9999202,8.6556991 L12.3115548,8.65495935 C16.0440453,8.64418887 18.326502,8.65633451 19.158925,8.69139626 C20.4541621,8.70007089 21.8369685,8.70975465 23.3057306,8.72073903 C24,9.96740349 24.1735674,10.7380764 23.8264326,11.0327579 C23.4792979,11.3274394 22.7379799,11.1212635 21.6024787,10.4142303 C21.1810423,10.0992533 20.8730444,9.94176486 20.6784852,9.94176486 C20.3866462,9.94176486 19.9247869,10.1605015 19.6050037,10.6960565 C19.3918149,11.0530932 18.8556719,11.165327 17.9965748,11.0327579 C17.570438,10.9353831 17.1994782,10.7292072 16.8836954,10.4142303 L16.8479892,10.3835846 C16.7428671,10.319185 16.6410561,10.2532295 16.5456554,10.1901374 C16.297333,10.0915897 16.0093346,10.1123681 15.6830734,10.2512826 C15.0581976,10.900444 14.4722696,11.1987191 13.9252892,11.1461078 C13.3783088,11.0934964 12.8984266,10.8918924 12.4856426,10.5412958 C12.3753148,10.4416552 12.2593485,10.3665588 12.1377435,10.3160066 C11.9127264,10.3420656 11.7051138,10.4453665 11.5143574,10.6253017 C11.1015734,10.9914804 10.6216912,11.2020446 10.0747108,11.2569942 C9.52773042,11.3119438 8.94180236,11.0004121 8.31692659,10.322399 C7.83229465,10.106883 7.43208731,10.1636129 7.11630455,10.4925888 C6.80052179,10.8215648 6.42956202,11.036904 6.00342522,11.1386066 C5.14432807,11.2770676 4.60818509,11.1598457 4.39499628,10.7869407 C4.07521305,10.2275832 3.61335376,9.99912496 3.32151484,9.99912496 C3.12695555,9.99912496 2.8189577,10.1636129 2.39752128,10.4925888 C1.26202005,11.2310458 0.520702078,11.446385 0.173567359,11.1386066 C-0.173567359,10.8308282 -4.4408921e-16,10.0259031 0.694269438,8.72383131 C2.12327378,8.71266928 3.47091303,8.70279314 4.73718717,8.69420287 C5.48656818,8.65624724 7.90795696,8.64333415 11.9999202,8.6556991 Z" id="Combined-Shape" fill="#78BB25"></path>
            <path d="M11.8312117,0.0307723087 C17.0935391,-0.223503511 19.7491833,1.13942559 21.025331,2.59156351 C22.2358574,3.59915857 22.9478058,4.79642004 23.3431743,5.88425503 L23.3485466,5.90226215 C24.0321211,7.59479923 23.8648249,9.04186047 23.613284,9.04186047 L0.440426641,9.04186047 C0.426225881,9.04186047 0.412296223,9.03695274 0.39877828,9.02736958 C0.396693198,9.02566165 0.394377418,9.02391952 0.392074616,9.02204733 L0.378176023,9.00880507 L0.378176023,9.00880507 C0.282064687,8.90644401 0.212354762,8.57015552 0.224674064,8.08754647 C0.24304464,6.87186905 0.74356651,4.71886614 2.54481791,2.98110445 C3.39436083,1.93122322 4.99470149,0.878796434 7.87778253,0.449017382 C9.02173414,0.242264771 10.3395439,0.102849746 11.8312117,0.0307723087 Z" id="Combined-Shape" fill="#E8B73F"></path>
            <circle id="Oval" fill="#FFDD75" cx="4.18604651" cy="6.53023256" r="1"></circle>
            <circle id="Oval" fill="#FFDD75" cx="3.40465116" cy="4.13023256" r="1"></circle>
            <circle id="Oval" fill="#FFDD75" cx="7.64651163" cy="6.92093023" r="1"></circle>
            <circle id="Oval" fill="#FFDD75" cx="6.19534884" cy="3.18139535" r="1"></circle>
            <circle id="Oval" fill="#FFDD75" cx="11.2186047" cy="5.19069767" r="1"></circle>
            <circle id="Oval" fill="#FFDD75" cx="13.4511628" cy="6.13953488" r="1"></circle>
            <circle id="Oval" fill="#FFDD75" cx="8.42790698" cy="4.24186047" r="1"></circle>
            <circle id="Oval" fill="#FFDD75" cx="5.69302326" cy="19.8139535" r="1"></circle>
            <circle id="Oval" fill="#FFDD75" cx="3.9627907" cy="18.4186047" r="1"></circle>
            <circle id="Oval" fill="#FFDD75" cx="18.6418605" cy="5.30232558" r="1"></circle>
            <circle id="Oval" fill="#FFDD75" cx="11.2186047" cy="2.45581395" r="1"></circle>
            <circle id="Oval" fill="#FFDD75" cx="14.7906977" cy="3.79534884" r="1"></circle>
            <circle id="Oval" fill="#FFDD75" cx="16.744186" cy="6.58604651" r="1"></circle>
            <circle id="Oval" fill="#FFDD75" cx="7.42325581" cy="18.8651163" r="1"></circle>
            <circle id="Oval" fill="#FFDD75" cx="17.5255814" cy="2.95813953" r="1"></circle>
            <circle id="Oval" fill="#FFDD75" cx="20.5953488" cy="4.40930233" r="1"></circle>
            <circle id="Oval" fill="#FFDD75" cx="10.2139535" cy="20.0930233" r="1"></circle>
            <circle id="Oval" fill="#FFDD75" cx="12.3906977" cy="19.0883721" r="1"></circle>
            <circle id="Oval" fill="#FFDD75" cx="16.9116279" cy="18.1953488" r="1"></circle>
            <circle id="Oval" fill="#FFDD75" cx="20.5953488" cy="7.25581395" r="1"></circle>
            <circle id="Oval" fill="#FFDD75" cx="14.5674419" cy="19.7581395" r="1"></circle>
            <circle id="Oval" fill="#FFDD75" cx="17.3581395" cy="19.8697674" r="1"></circle>
            <circle id="Oval" fill="#FFDD75" cx="20.0930233" cy="18.6976744" r="1"></circle>
        </g>
    </g>
</svg>