<?xml version="1.0" encoding="UTF-8"?>
<svg width="20px" height="20px" viewBox="0 0 20 20" version="1.1" xmlns="http://www.w3.org/2000/svg" xmlns:xlink="http://www.w3.org/1999/xlink">
    <!-- Generator: Sketch 57.1 (83088) - https://sketch.com -->
    <title>Slice 1</title>
    <desc>Created with Sketch.</desc>
    <g id="Page-1" stroke="none" stroke-width="1" fill="none" fill-rule="evenodd">
        <path d="M19.1666667,18.3333333 C19.626904,18.3333333 20,18.7064294 20,19.1666667 C20,19.626904 19.626904,20 19.1666667,20 L0.833333333,20 C0.373096042,20 5.63628126e-17,19.626904 0,19.1666667 C-5.63628126e-17,18.7064294 0.373096042,18.3333333 0.833333333,18.3333333 L19.1666667,18.3333333 Z M13.3166667,4.16666667 C13.7861087,4.16666667 14.1666667,4.54722463 14.1666667,5.01666667 L14.1666667,16.65 C14.1666667,17.119442 13.7861087,17.5 13.3166667,17.5 L11.6833333,17.5 C11.2138913,17.5 10.8333333,17.119442 10.8333333,16.65 L10.8333333,5.01666667 C10.8333333,4.54722463 11.2138913,4.16666667 11.6833333,4.16666667 L13.3166667,4.16666667 Z M18.3166667,1.92637607e-15 C18.7861087,1.95512111e-15 19.1666667,0.380557963 19.1666667,0.85 L19.1666667,16.65 C19.1666667,17.119442 18.7861087,17.5 18.3166667,17.5 L16.6833333,17.5 C16.2138913,17.5 15.8333333,17.119442 15.8333333,16.65 L15.8333333,0.85 C15.8333333,0.380557963 16.2138913,2.25015593e-15 16.6833333,1.62633761e-15 L18.3166667,1.92637607e-15 Z M3.31666667,11.6666667 C3.7861087,11.6666667 4.16666667,12.0472246 4.16666667,12.5166667 L4.16666667,16.65 C4.16666667,17.119442 3.7861087,17.5 3.31666667,17.5 L1.68333333,17.5 C1.2138913,17.5 0.833333333,17.119442 0.833333333,16.65 L0.833333333,12.5166667 C0.833333333,12.0472246 1.2138913,11.6666667 1.68333333,11.6666667 L3.31666667,11.6666667 Z M8.31666667,7.5 C8.7861087,7.5 9.16666667,7.88055796 9.16666667,8.35 L9.16666667,16.65 C9.16666667,17.119442 8.7861087,17.5 8.31666667,17.5 L6.68333333,17.5 C6.2138913,17.5 5.83333333,17.119442 5.83333333,16.65 L5.83333333,8.35 C5.83333333,7.88055796 6.2138913,7.5 6.68333333,7.5 L8.31666667,7.5 Z" id="data" fill="#0798E1"></path>
    </g>
</svg>