<?xml version="1.0" encoding="UTF-8"?>
<svg width="21px" height="21px" viewBox="0 0 21 21" version="1.1" xmlns="http://www.w3.org/2000/svg" xmlns:xlink="http://www.w3.org/1999/xlink">
    <!-- Generator: Sketch 57.1 (83088) - https://sketch.com -->
    <title>Slice 1</title>
    <desc>Created with Sketch.</desc>
    <g id="Page-1" stroke="none" stroke-width="1" fill="none" fill-rule="evenodd">
        <path d="M11.75,2.29621275e-16 C12.219442,3.69388612e-16 12.6,0.380557963 12.6,0.85 L12.5997762,2.79913817 C13.2572291,2.97798256 13.88092,3.23877163 14.4592005,3.5698569 L15.8386562,2.19149532 C16.1706018,1.85954967 16.7087921,1.85954967 17.0407377,2.19149532 L18.8085047,3.95926227 C19.1404503,4.29120792 19.1404503,4.82939815 18.8085047,5.1613438 L17.4295704,6.53979942 C17.76076,7.11806819 18.0216502,7.74176042 18.2005901,8.39922519 L20.15,8.4 C20.619442,8.4 21,8.78055796 21,9.25 L21,11.75 C21,12.219442 20.619442,12.6 20.15,12.6 L18.2005901,12.6007748 C18.0217534,13.2578606 17.7610607,13.8812128 17.4301431,14.4592005 L18.8085047,15.8386562 C19.1404503,16.1706018 19.1404503,16.7087921 18.8085047,17.0407377 L17.0407377,18.8085047 C16.7087921,19.1404503 16.1706018,19.1404503 15.8386562,18.8085047 L14.4592005,17.4301431 C13.88092,17.7612284 13.2572291,18.0220174 12.5997762,18.2008618 L12.6,20.15 C12.6,20.619442 12.219442,21 11.75,21 L9.25,21 C8.78055796,21 8.4,20.619442 8.4,20.15 L8.39922519,18.2005901 C7.74176042,18.0216502 7.11806819,17.76076 6.53979942,17.4295704 L5.1613438,18.8085047 C4.82939815,19.1404503 4.29120792,19.1404503 3.95926227,18.8085047 L2.19149532,17.0407377 C1.85954967,16.7087921 1.85954967,16.1706018 2.19149532,15.8386562 L3.5698569,14.4592005 C3.23893926,13.8812128 2.97824665,13.2578606 2.79940988,12.6007748 L0.85,12.6 C0.380557963,12.6 -5.35322336e-17,12.219442 0,11.75 L0,9.25 C1.64554536e-16,8.78055796 0.380557963,8.4 0.85,8.4 L2.79940988,8.39922519 C2.97824665,7.74213941 3.23893926,7.11878723 3.5698569,6.54079946 L2.19149532,5.1613438 C1.85954967,4.82939815 1.85954967,4.29120792 2.19149532,3.95926227 L3.95926227,2.19149532 C4.29120792,1.85954967 4.82939815,1.85954967 5.1613438,2.19149532 L6.54079946,3.5698569 C7.11878723,3.23893926 7.74213941,2.97824665 8.39922519,2.79940988 L8.4,0.85 C8.4,0.380557963 8.78055796,-4.80410914e-16 9.25,-2.29621275e-16 L11.75,2.29621275e-16 Z M10.5,6.72 C8.41236365,6.72 6.72,8.41236365 6.72,10.5 C6.72,12.5876364 8.41236365,14.28 10.5,14.28 C12.5876364,14.28 14.28,12.5876364 14.28,10.5 C14.28,8.41236365 12.5876364,6.72 10.5,6.72 Z" id="settings" fill="#0798E1"></path>
    </g>
</svg>