<?xml version="1.0" encoding="UTF-8"?>
<svg width="15px" height="15px" viewBox="0 0 15 15" version="1.1" xmlns="http://www.w3.org/2000/svg" xmlns:xlink="http://www.w3.org/1999/xlink">
    <!-- Generator: Sketch 57.1 (83088) - https://sketch.com -->
    <title>Slice 1</title>
    <desc>Created with Sketch.</desc>
    <g id="Page-1" stroke="none" stroke-width="1" fill="none" fill-rule="evenodd">
        <g id="tool-tip_01" fill="#0798E1" fill-rule="nonzero">
            <path d="M7.5,1.86517468e-14 C11.6421356,1.86517468e-14 15,3.35786438 15,7.5 C15,11.6421356 11.6421356,15 7.5,15 C3.35786438,15 0,11.6421356 0,7.5 C0,3.35786438 3.35786438,1.86517468e-14 7.5,1.86517468e-14 Z M7.5,0.766423358 C3.78114831,0.766423358 0.766423358,3.78114831 0.766423358,7.5 C0.766423358,11.2188517 3.78114831,14.2335766 7.5,14.2335766 C11.2188517,14.2335766 14.2335766,11.2188517 14.2335766,7.5 C14.2335766,3.78114831 11.2188517,0.766423358 7.5,0.766423358 Z M7.21130817,10.2682339 C7.40377035,10.2682339 7.54989686,10.3225859 7.64969206,10.4312913 C7.74948727,10.5399968 7.79938412,10.6745401 7.79938412,10.8349253 C7.79938412,10.9953105 7.74948727,11.1280717 7.64969206,11.2332131 C7.54989686,11.3383545 7.40377035,11.3909244 7.21130817,11.3909244 C7.01884598,11.3909244 6.87361049,11.3383545 6.77559734,11.2332131 C6.67758419,11.1280717 6.62857835,10.9953105 6.62857835,10.8349253 C6.62857835,10.6745401 6.67758419,10.5399968 6.77559734,10.4312913 C6.87361049,10.3225859 7.01884598,10.2682339 7.21130817,10.2682339 Z M7.36100023,3.44120666 C8.03461788,3.44120666 8.55942587,3.62208276 8.93543995,3.98384039 C9.31145404,4.34559801 9.49945826,4.84189352 9.49945826,5.47274179 C9.49945826,6.09646183 9.21076931,6.71126237 8.63338276,7.31716184 L8.05065294,7.89454551 C7.79047258,8.18323878 7.66038435,8.5984519 7.66038435,9.14019731 L6.67134751,9.14019731 C6.67847574,8.71606768 6.72659057,8.38104594 6.81569343,8.13512203 C6.90479629,7.88919813 7.08656341,7.61654746 7.36100023,7.31716184 L8.06134523,6.59543225 C8.36073085,6.25684137 8.51042142,5.89330714 8.51042142,5.50481866 C8.51042142,5.13058663 8.41240974,4.83744261 8.21638344,4.62537779 C8.02035714,4.41331298 7.73523225,4.30728216 7.36100023,4.30728216 C6.99746055,4.30728216 6.70520754,4.40351181 6.48423244,4.595974 C6.26325733,4.78843618 6.15277144,5.04683061 6.15277144,5.37116503 L5.1637346,5.37116503 C5.17086283,4.79377848 5.37668736,4.32777749 5.78121436,3.9731481 C6.18574136,3.6185187 6.71233138,3.44120666 7.36100023,3.44120666 Z" id="tool-tip"></path>
        </g>
    </g>
</svg>